<?xml version="1.0" encoding="utf-8"?>
<!-- Svg Vector Icons : http://www.onlinewebfonts.com/icon -->
<!DOCTYPE svg PUBLIC "-//W3C//DTD SVG 1.1//EN" "http://www.w3.org/Graphics/SVG/1.1/DTD/svg11.dtd">
<svg version="1.1" xmlns="http://www.w3.org/2000/svg" xmlns:xlink="http://www.w3.org/1999/xlink" x="0px" y="0px" viewBox="0 0 1000 1000" enable-background="new 0 0 1000 1000" xml:space="preserve">
<metadata> Svg Vector Icons : http://www.onlinewebfonts.com/icon </metadata>
<g><g transform="translate(0.000000,511.000000) scale(0.100000,-0.100000)"><path d="M363.5,4963.1c-117.1-54.7-169.8-109.3-222.5-226.5c-41-87.9-41-99.6-41-4626.7v-4538.8l46.9-97.6c54.7-117.1,109.3-169.8,226.5-222.6c87.9-41,99.6-41,4626.7-41h4538.8l97.6,46.9c117.1,54.7,169.8,109.3,222.6,226.5c41,87.8,41,99.6,41,4626.7c0,4527.1,0,4538.8-41,4626.7c-52.7,117.1-105.4,171.8-222.6,226.5l-97.6,46.9H5000H461.2L363.5,4963.1z M9427.6,4738.6c93.7-48.8,169.8-128.8,206.9-220.6c27.3-64.4,31.2-532.9,31.2-4408s-3.9-4343.6-31.2-4408c-39-95.7-117.1-175.7-212.8-220.6c-76.1-35.1-236.2-37.1-4417.8-37.1c-3879,0-4347.5,3.9-4411.9,31.2c-91.8,37.1-171.8,113.2-220.6,206.9c-37.1,70.3-37.1,181.6-37.1,4429.5c0,4808.2-9.8,4413.9,123,4542.7c136.7,130.8-271.4,121,4538.8,121C9248,4775.7,9357.3,4775.7,9427.6,4738.6z"/><path d="M6747.2,2011.4c-337.7-60.5-341.6-62.5-341.6-99.6c0-25.4,15.6-29.3,83.9-19.5c105.4,15.6,169.9-23.4,169.9-99.6c0-29.3-83.9-345.5-185.5-700.8c-101.5-357.2-185.5-657.9-185.5-669.6s54.7-19.5,132.7-19.5H6552l46.9,167.9c58.6,214.7,165.9,435.3,329.9,681.3c249.9,374.8,554.4,636.4,677.4,579.8c39-17.6,48.8-37.1,48.8-93.7c0-39-78.1-310.4-175.7-603.2c-105.4-322.1-175.7-564.2-175.7-613c0-148.4,115.2-199.1,271.4-121c72.2,37.1,292.8,257.7,333.8,331.9c35.1,66.4-19.5,74.2-72.2,9.8c-167.9-203-222.5-238.2-236.2-152.3c-3.9,21.5,70.3,271.4,164,554.4c91.8,285,173.8,566.1,177.7,624.7c31.2,343.6-300.6,388.5-634.5,87.9c-87.9-78.1-199.1-210.8-456.8-536.9c-29.3-37.1-50.8-54.7-44.9-39c3.9,15.6,52.7,183.5,107.4,370.9c54.7,187.4,103.5,357.2,109.3,376.8c5.9,17.6,3.9,33.2-5.8,31.2C7008.8,2058.3,6887.8,2036.8,6747.2,2011.4z"/><path d="M5085.9,1324.3c-244-85.9-534.9-365.1-808.2-775l-181.6-271.4l-54.7,197.2c-93.7,351.4-156.2,513.4-251.8,657.9c-160.1,236.2-119.1,224.5-532.9,152.3c-195.2-35.1-410-72.2-476.3-84c-121-21.5-123-23.4-123-85.9v-62.5l201.1-9.8c228.4-11.7,320.2-42.9,427.5-146.4c105.4-103.5,160.1-246,290.9-761.4l119.1-462.7l-42.9-89.8c-140.6-288.9-550.5-900-732.1-1087.4c-144.5-150.3-181.6-165.9-265.5-107.4c-234.3,158.1-240.1,160.1-331.9,160.1c-160.1,0-285-142.5-265.5-306.5c17.6-169.8,160.1-288.9,343.6-288.9c271.4,0,523.2,199.1,859,673.5c130.8,183.5,343.6,519.3,431.4,679.4c25.4,44.9,52.7,82,58.6,82c7.8,0,33.2-93.7,56.6-208.9c74.2-351.4,210.8-874.6,257.7-980c50.8-119.1,142.5-205,251.8-238.2c66.4-19.5,95.7-19.5,181.5,7.8c230.4,74.2,581.8,417.8,794.6,778.9l41,72.2l-58.6,29.3c-31.2,17.6-62.5,31.2-66.4,31.2s-39-50.7-78.1-113.2c-82-132.7-322.1-369-394.3-386.5c-142.5-35.2-193.3,39-292.8,437.3C4307-626,4160.6-9.1,4160.6,20.2c0,44.9,197.2,359.2,333.8,529c123,156.2,285,294.8,363.1,314.3c48.8,13.7,109.3,2,335.8-60.5c164-44.9,324,7.8,388.5,128.8c35.1,64.4,17.6,222.5-29.3,287C5458.8,1343.8,5263.5,1388.7,5085.9,1324.3z"/></g></g>
</svg>